<svg width="240" height="240" viewBox="0 0 240 240" fill="none" xmlns="http://www.w3.org/2000/svg">
<g clip-path="url(#clip0_32_2)">
<rect width="240" height="240" fill="#00FA9A"/>
<g clip-path="url(#clip1_32_2)">
<rect x="22.2676" y="37.1133" width="200.412" height="167.01" fill="black"/>
<path d="M164.122 20.6377C147.348 20.6377 132.648 23.3498 120 28.7556C107.358 23.3498 92.6585 20.6377 75.8839 20.6377H0V219.362H75.8839C92.6402 219.362 107.339 216.558 120.006 210.975C132.673 216.558 147.372 219.362 164.128 219.362H240.012V20.6377H164.128H164.122ZM198.412 184.931H169.081C156.684 184.931 146.246 182.452 137.748 177.493C130.23 173.103 124.316 166.834 120 158.698C115.684 166.834 109.77 173.103 102.252 177.493C93.7605 182.452 83.3161 184.931 70.9188 184.931H41.5877V55.0686H70.9188C83.0406 55.0686 93.3687 57.5236 101.903 62.4396C109.562 66.8476 115.586 73.135 119.994 81.2775C124.402 73.135 130.426 66.8476 138.085 62.4396C146.625 57.5297 156.953 55.0686 169.069 55.0686H198.4V184.937L198.412 184.931Z" fill="#00FA9A"/>
</g>
</g>
<defs>
<clipPath id="clip0_32_2">
<rect width="240" height="240" fill="white"/>
</clipPath>
<clipPath id="clip1_32_2">
<rect width="240" height="240" fill="white"/>
</clipPath>
</defs>
</svg>
