<svg fill="none" xmlns="http://www.w3.org/2000/svg" viewBox="0 0 32 32" class="cl-activeDeviceIcon cl-activeDeviceIcon__desktop ðŸ”’ï¸ cl-internal-kl83ep"><path d="M2.91 1.452c0-.58.077-.83.23-1.079C3.33.166 3.6 0 4.212 0h23.617c.536 0 .765.124.957.332.191.207.268.498.268 1.12v17.013c0 .58-.077.83-.192.996a1.06 1.06 0 0 1-.37.338.968.968 0 0 1-.472.118H3.905c-.306 0-.612-.125-.765-.415-.153-.166-.23-.415-.23-1.037V1.452Z" fill="#000"></path><path d="M3.445 19.334h25.072c.115 0 .23-.083.306-.166.077-.083.077-.207.077-.58V1.45c0-.498-.038-.83-.23-.995-.191-.208-.383-.29-.842-.29H4.211c-.498 0-.766.124-.957.331-.153.166-.192.415-.192.954v17.137c0 .374 0 .498.077.581.077.083.191.166.306.166Z" fill="#575757"></path><path fill-rule="evenodd" clip-rule="evenodd" d="M15.999.912a.109.109 0 0 0 .117.006.119.119 0 0 0 .045-.046.132.132 0 0 0 0-.128.119.119 0 0 0-.045-.046.108.108 0 0 0-.117.006.109.109 0 0 0-.118-.006.12.12 0 0 0-.044.046.132.132 0 0 0 0 .128.12.12 0 0 0 .044.046.108.108 0 0 0 .118-.006Z" fill="#000" stroke="#000" stroke-width="0.3"></path><path fill-rule="evenodd" clip-rule="evenodd" d="M0 19.5v-.207h32v.207s-.727.25-1.531.332c-.536.042-1.416.166-3.407.166H5.091c-1.723 0-3.177-.124-3.828-.207C.613 19.708 0 19.5 0 19.5Z" fill="#444"></path><path fill-rule="evenodd" clip-rule="evenodd" d="M3.941 1.328h24.115v16.349H3.941V1.328Z" fill="#000"></path></svg>
